<svg width="32" height="32" viewBox="0 0 32 32" fill="none" xmlns="http://www.w3.org/2000/svg">
<rect width="32" height="32" rx="16" fill="white"/>
<mask id="mask0_754_756" style="mask-type:alpha" maskUnits="userSpaceOnUse" x="4" y="4" width="24" height="24">
<rect x="4" y="4" width="24" height="24" rx="12" fill="#ECF0F6"/>
</mask>
<g mask="url(#mask0_754_756)">
<path d="M20.963 11.1249C20.9405 11.5387 20.9029 11.945 20.8429 12.3437C20.8203 12.4716 20.7978 12.5995 20.7753 12.7274C21.0231 12.6973 21.2785 12.6823 21.5413 12.6823C21.7967 12.6823 22.0521 12.6973 22.3074 12.7274C22.2849 12.5995 22.2624 12.4716 22.2398 12.3437C22.1797 11.945 22.1347 11.5387 22.1197 11.1249C22.6679 11.1475 23.2012 11.2152 23.7269 11.313C23.6969 11.0647 23.6819 10.8089 23.6819 10.5456C23.6819 10.2823 23.6969 10.034 23.7269 9.77819C23.2012 9.876 22.6679 9.94371 22.1197 9.96628C22.1497 9.41706 22.2098 8.88289 22.3074 8.36377C22.0596 8.39386 21.8042 8.40891 21.5413 8.40891C21.2785 8.40891 21.0306 8.39386 20.7753 8.36377C20.8729 8.89042 20.9405 9.42458 20.963 9.96628C20.4148 9.94371 19.8815 9.876 19.3633 9.77819C19.3933 10.0265 19.4083 10.2823 19.4083 10.5456C19.4083 10.8014 19.3933 11.0572 19.3633 11.313C19.8815 11.2152 20.4148 11.1475 20.963 11.1249Z" fill="#D51F3A"/>
<path d="M20.963 22.0341C20.9405 22.4479 20.9029 22.8541 20.8429 23.2529C20.8203 23.3808 20.7978 23.5087 20.7753 23.6366C21.0231 23.6065 21.2785 23.5914 21.5413 23.5914C21.7967 23.5914 22.0521 23.6065 22.3074 23.6366C22.2849 23.5087 22.2624 23.3808 22.2398 23.2529C22.1797 22.8541 22.1347 22.4479 22.1197 22.0341C22.6679 22.0566 23.2012 22.1244 23.7269 22.2222C23.6969 21.9739 23.6819 21.7181 23.6819 21.4548C23.6819 21.1914 23.6969 20.9432 23.7269 20.6874C23.2012 20.7852 22.6679 20.8529 22.1197 20.8755C22.1497 20.3262 22.2098 19.7921 22.3074 19.2729C22.0596 19.303 21.8042 19.3181 21.5413 19.3181C21.2785 19.3181 21.0306 19.303 20.7753 19.2729C20.8729 19.7996 20.9405 20.3338 20.963 20.8755C20.4148 20.8529 19.8815 20.7852 19.3633 20.6874C19.3933 20.9356 19.4083 21.1914 19.4083 21.4548C19.4083 21.7106 19.3933 21.9664 19.3633 22.2222C19.8815 22.1244 20.4148 22.0566 20.963 22.0341Z" fill="#D51F3A"/>
<path d="M10.0548 22.0341C10.0323 22.4479 9.99474 22.8541 9.93466 23.2529C9.91213 23.3808 9.88959 23.5087 9.86706 23.6366C10.1149 23.6065 10.3703 23.5914 10.6331 23.5914C10.8885 23.5914 11.1439 23.6065 11.3992 23.6366C11.3767 23.5087 11.3542 23.3808 11.3316 23.2529C11.2715 22.8541 11.2265 22.4479 11.2115 22.0341C11.7597 22.0566 12.293 22.1244 12.8187 22.2222C12.7887 21.9739 12.7737 21.7181 12.7737 21.4548C12.7737 21.1914 12.7887 20.9432 12.8187 20.6874C12.293 20.7852 11.7597 20.8529 11.2115 20.8755C11.2415 20.3262 11.3016 19.7921 11.3992 19.2729C11.1514 19.303 10.896 19.3181 10.6331 19.3181C10.3703 19.3181 10.1224 19.303 9.86706 19.2729C9.9647 19.7996 10.0323 20.3338 10.0548 20.8755C9.50656 20.8529 8.97331 20.7852 8.45508 20.6874C8.48512 20.9356 8.50014 21.1914 8.50014 21.4548C8.50014 21.7106 8.48512 21.9664 8.45508 22.2222C8.97331 22.1244 9.50656 22.0566 10.0548 22.0341Z" fill="#D51F3A"/>
<path d="M10.0548 11.1249C10.0323 11.5387 9.99474 11.945 9.93466 12.3437C9.91213 12.4716 9.88959 12.5995 9.86706 12.7274C10.1149 12.6973 10.3703 12.6823 10.6331 12.6823C10.8885 12.6823 11.1439 12.6973 11.3992 12.7274C11.3767 12.5995 11.3542 12.4716 11.3316 12.3437C11.2715 11.945 11.2265 11.5387 11.2115 11.1249C11.7597 11.1475 12.293 11.2152 12.8187 11.313C12.7887 11.0647 12.7737 10.8089 12.7737 10.5456C12.7737 10.2823 12.7887 10.034 12.8187 9.77819C12.293 9.876 11.7597 9.94371 11.2115 9.96628C11.2415 9.41706 11.3016 8.88289 11.3992 8.36377C11.1514 8.39386 10.896 8.40891 10.6331 8.40891C10.3703 8.40891 10.1224 8.39386 9.86706 8.36377C9.9647 8.89042 10.0323 9.42458 10.0548 9.96628C9.50656 9.94371 8.97331 9.876 8.45508 9.77819C8.48512 10.0265 8.50014 10.2823 8.50014 10.5456C8.50014 10.8014 8.48512 11.0572 8.45508 11.313C8.97331 11.2152 9.50656 11.1475 10.0548 11.1249Z" fill="#D51F3A"/>
<path d="M18.2718 4H13.9082V28H18.2718V4Z" fill="#D51F3A"/>
<path d="M29.1818 13.8184H3V18.182H29.1818V13.8184Z" fill="#D51F3A"/>
</g>
</svg>
