<svg width="24" height="24" viewBox="0 0 24 24" fill="none" xmlns="http://www.w3.org/2000/svg">
<path d="M10.8998 6.73439L10.8999 6.73426L10.893 6.72815C10.5839 6.45522 10.412 6.08222 10.412 5.69333C10.412 4.91651 11.0825 4.25667 11.9614 4.25667C12.8404 4.25667 13.5109 4.91651 13.5109 5.69333V6.01111V6.26111H13.7609H16.9229H17.1729V6.01111V5.69333C17.1729 2.9508 14.8107 0.75 11.9614 0.75C9.11218 0.75 6.75 2.9508 6.75 5.69333V20.6778C6.75 22.0987 7.97934 23.25 9.44216 23.25H14.5578C16.0207 23.25 17.25 22.0987 17.25 20.6778V13.8333C17.25 13.1487 16.9354 12.4736 16.4525 12.0144L10.8998 6.73439ZM16.0816 20.6778C16.0816 21.4569 15.4086 22.1144 14.5578 22.1144H9.44216C8.59135 22.1144 7.91838 21.4569 7.91838 20.6778V5.69333C7.91838 3.61962 9.72146 1.88556 11.9614 1.88556C14.0049 1.88556 15.6752 3.29364 15.9719 5.12556H14.6113C14.3421 3.97339 13.2299 3.12111 11.9614 3.12111C10.4747 3.12111 9.24357 4.27078 9.24357 5.69333C9.24357 6.40266 9.5585 7.07898 10.0949 7.56343L15.6452 12.8412C15.9286 13.1107 16.0816 13.4846 16.0816 13.8578V20.6778Z" fill="#56CA76" stroke="#56CA76" stroke-width="0.5"/>
<circle cx="12" cy="17.6665" r="2" fill="#56CA76"/>
<circle cx="12" cy="17.6665" r="2" stroke="black"/>
</svg>
