<svg width="24" height="24" viewBox="0 0 24 24" fill="none" xmlns="http://www.w3.org/2000/svg">
<path d="M8.94322 4.6423L8.94349 4.64231C8.9847 4.64432 9.0256 4.65041 9.06558 4.66049C10.3869 4.95086 11.3325 6.14974 11.3329 7.49932C11.3329 7.49956 11.3329 7.49979 11.3329 7.50002H11.2329C11.2338 7.56627 11.2213 7.63206 11.196 7.69355C11.1707 7.75503 11.1332 7.81099 11.0856 7.85817C11.038 7.90536 10.9813 7.94281 10.9187 7.96839C10.8562 7.99396 10.7891 8.00715 10.7213 8.00715C10.6535 8.00715 10.5863 7.99396 10.5238 7.96839C10.4612 7.94281 10.4045 7.90536 10.3569 7.85817C10.3093 7.81099 10.2718 7.75503 10.2465 7.69355C10.2212 7.63206 10.2087 7.56627 10.2097 7.50002L8.94322 4.6423ZM8.94322 4.6423C8.92441 4.64144 8.90556 4.64143 8.88675 4.64227C8.73653 4.64734 8.59313 4.70653 8.48425 4.80904C8.37516 4.91175 8.30845 5.05075 8.29767 5.19938C8.28689 5.34803 8.33288 5.49502 8.42623 5.61196C8.51904 5.72822 8.652 5.80648 8.79937 5.83252C9.53187 5.99413 10.1093 6.70505 10.1097 7.49934L8.94322 4.6423ZM0.900796 19.9984L0.900798 19.9982L0.900781 19.9933L0.900784 19.9842L0.900801 19.9826L1.00078 19.9844C1.00933 15.8931 4.32532 12.5 8.41904 12.5L0.900796 19.9984ZM0.900796 19.9984C0.897956 20.1813 0.903206 20.3715 0.908839 20.5191L0.900796 19.9984ZM22.4801 18.8499C22.6367 18.8501 22.7878 18.7912 22.9018 18.685C23.0158 18.5789 23.084 18.4335 23.0916 18.2789C23.1006 18.1157 23.1002 17.9716 23.0999 17.8299C23.0998 17.8032 23.0997 17.7766 23.0997 17.7499C23.0997 14.8578 20.6454 12.6499 17.6279 12.6499H17.1163C15.7062 12.6498 14.4498 13.1537 13.4842 13.9721C12.2206 12.9912 10.6451 12.3999 8.93064 12.3999H8.93062L8.41904 12.4L22.4802 18.7499M22.4801 18.8499L22.4802 18.7499M22.4801 18.8499H22.4802V18.7499M22.4801 18.8499H16.3545M22.4802 18.7499H16.3384C16.3439 18.7832 16.3493 18.8165 16.3545 18.8499M16.3545 18.8499C16.4131 19.225 16.4489 19.6078 16.4489 19.9999C16.4489 20.0277 16.449 20.0549 16.449 20.0819C16.4493 20.2265 16.4496 20.3637 16.4408 20.5287M16.3545 18.8499H16.2533C16.3126 19.2259 16.3489 19.6085 16.3489 19.9999C16.3489 20.0281 16.349 20.0555 16.349 20.0827C16.3493 20.2272 16.3496 20.3613 16.3409 20.5234M16.4408 20.5287L16.3409 20.5234M16.4408 20.5287C16.4408 20.5286 16.4408 20.5284 16.4408 20.5282L16.3409 20.5234M16.4408 20.5287L16.3409 20.5234M8.67484 2.9C6.22616 2.9 4.22621 4.85134 4.22621 7.25002C4.22621 9.64869 6.22616 11.6 8.67484 11.6C11.1235 11.6 13.1235 9.64869 13.1235 7.25002C13.1235 4.85134 11.1235 2.9 8.67484 2.9ZM8.67484 4.1C10.4644 4.1 11.9003 5.50654 11.9003 7.25002C11.9003 8.99349 10.4644 10.4 8.67484 10.4C6.88525 10.4 5.44942 8.99349 5.44942 7.25002C5.44942 5.50654 6.88525 4.1 8.67484 4.1ZM17.3721 6.15001C15.6298 6.15001 14.2025 7.54171 14.2025 9.25003C14.2025 10.9583 15.6298 12.35 17.3721 12.35C19.1144 12.35 20.5417 10.9583 20.5417 9.25003C20.5417 7.54171 19.1144 6.15001 17.3721 6.15001ZM17.3721 7.35002C18.4553 7.35002 19.3185 8.19691 19.3185 9.25003C19.3185 10.3031 18.4553 11.15 17.3721 11.15C16.2889 11.15 15.4257 10.3031 15.4257 9.25003C15.4257 8.19691 16.2889 7.35002 17.3721 7.35002ZM17.1163 13.85H17.6279C20.0159 13.85 21.8214 15.4786 21.8753 17.6501H16.0701C15.7203 16.5761 15.1392 15.606 14.3851 14.7984C15.1239 14.2084 16.0553 13.8499 17.1163 13.85Z" fill="#9BA4B5" stroke="#9BA4B5" stroke-width="0.2"/>
</svg>
