<svg width="24" height="24" viewBox="0 0 24 24" fill="none" xmlns="http://www.w3.org/2000/svg">
<path d="M1.5 13.4998L3.45 12.8248C6.375 11.8498 9.675 12.5248 12 14.6248C14.325 16.7248 17.55 17.3998 20.55 16.4248L22.5 15.7498" stroke="#9BA4B5" stroke-width="1.5" stroke-miterlimit="10" stroke-linecap="round" stroke-linejoin="round"/>
<path d="M1 17.1131L2.95 16.4381C5.875 15.4631 9.175 16.1381 11.5 18.2381C13.825 20.3381 17.05 21.0131 20.05 20.0381L22 19.3631" stroke="#9BA4B5" stroke-width="1.5" stroke-miterlimit="10" stroke-linecap="round" stroke-linejoin="round"/>
<path d="M17.25 9C18.9069 9 20.25 7.65685 20.25 6C20.25 4.34315 18.9069 3 17.25 3C15.5931 3 14.25 4.34315 14.25 6C14.25 7.65685 15.5931 9 17.25 9Z" stroke="#9BA4B5" stroke-width="1.5" stroke-miterlimit="10" stroke-linecap="round" stroke-linejoin="round"/>
<path d="M13.5008 15.7499L14.2508 14.9999C15.5258 13.7249 15.5258 11.6999 14.2508 10.4999L8.62578 4.8749C7.57578 3.8249 5.92578 3.8249 4.87578 4.8749L1.57578 8.1749C1.12578 8.6249 1.12578 9.3749 1.57578 9.8249C1.95078 10.1999 2.55078 10.2749 3.07578 9.9749L6.75078 7.4999L9.00078 9.7499L6.37578 12.3749" stroke="#9BA4B5" stroke-width="1.5" stroke-miterlimit="10" stroke-linecap="round" stroke-linejoin="round"/>
</svg>
