<svg width="24" height="24" viewBox="0 0 24 24" fill="none" xmlns="http://www.w3.org/2000/svg">
<path d="M13.1529 6.18388C13.2848 5.96921 13.3587 5.72168 13.3668 5.4672C13.3749 5.21273 13.317 4.96067 13.1991 4.73741C13.0811 4.51416 12.9075 4.32791 12.6965 4.19818C12.4854 4.06845 12.2446 4 11.9993 4C11.754 4 11.5132 4.06845 11.3021 4.19818C11.0911 4.32791 10.9175 4.51416 10.7995 4.73741C10.6816 4.96067 10.6237 5.21273 10.6318 5.4672C10.6399 5.72168 10.7138 5.96921 10.8457 6.18388C8.1445 6.48297 5.64509 7.80765 3.82774 9.90336C2.01038 11.9991 1.0033 14.718 1 17.5376C1 17.6338 1.03683 17.7261 1.10239 17.7942C1.16795 17.8622 1.25687 17.9005 1.34958 17.9005H22.6504C22.7431 17.9005 22.832 17.8622 22.8976 17.7942C22.9632 17.7261 23 17.6338 23 17.5376C22.9967 14.7177 21.9894 11.9987 20.1717 9.90291C18.3541 7.80717 15.8544 6.48264 13.1529 6.18388ZM11.3309 5.42551C11.3313 5.28825 11.3709 5.15419 11.4447 5.04026C11.5185 4.92634 11.6231 4.83766 11.7454 4.78543C11.8677 4.7332 12.0022 4.71976 12.1318 4.7468C12.2615 4.77384 12.3805 4.84016 12.4739 4.93737C12.5672 5.03459 12.6307 5.15834 12.6564 5.293C12.682 5.42766 12.6687 5.56719 12.618 5.69397C12.5673 5.82074 12.4815 5.92908 12.3715 6.0053C12.2615 6.08152 12.1322 6.12219 12 6.1222C11.912 6.1221 11.8248 6.104 11.7436 6.06893C11.6623 6.03385 11.5885 5.9825 11.5263 5.9178C11.4642 5.8531 11.4149 5.77632 11.3814 5.69185C11.3479 5.60738 11.3307 5.51687 11.3309 5.42551ZM1.70476 17.1747C1.79806 14.4053 2.92359 11.7816 4.84413 9.85663C6.76467 7.93167 9.3302 6.85582 12 6.85582C14.6698 6.85582 17.2353 7.93167 19.1559 9.85663C21.0764 11.7816 22.2019 14.4053 22.2952 17.1747H1.70476Z" fill="#9BA4B5" stroke="#9BA4B5" stroke-width="0.6"/>
<path d="M9.12785 9.0049C8.00051 9.3419 6.95412 9.97897 6.06943 10.8669C5.18474 11.7549 4.48543 12.87 4.02547 14.1262C3.99238 14.2175 3.9915 14.3205 4.02301 14.4126C4.05453 14.5046 4.11586 14.5782 4.19351 14.6171C4.27117 14.656 4.35879 14.6571 4.4371 14.62C4.5154 14.5829 4.57799 14.5108 4.61107 14.4195C5.03848 13.2802 5.67781 12.2682 6.48199 11.4579C7.28616 10.6476 8.23468 10.0597 9.2577 9.73758C9.33756 9.7145 9.40672 9.65598 9.45069 9.57428C9.49465 9.49257 9.51002 9.39403 9.49356 9.2993C9.4771 9.20457 9.43009 9.12101 9.36239 9.06613C9.29469 9.01125 9.21155 8.98931 9.1304 9.0049H9.12785Z" fill="#9BA4B5" stroke="#9BA4B5" stroke-width="0.6"/>
<path d="M1 20H23" stroke="#9BA4B5" stroke-width="1.4" stroke-linecap="round"/>
</svg>
